<svg width="300" height="300" viewBox="0 0 300 300" fill="none" xmlns="http://www.w3.org/2000/svg">
<path d="M221.08 37.1229C197.928 37.1229 179.16 56.2883 179.16 79.9295V115.603L114.441 49.5168C98.0973 32.8277 71.5998 32.8277 55.2575 49.5168C38.9142 66.2059 38.9142 93.2629 55.2575 109.952L188.577 246.091C194.047 251.79 200.694 257.435 208.675 259.956C223.131 264.691 239.608 261.199 251.082 249.483C260.613 239.75 263 226.816 263 213.817V79.9307C263 56.2894 244.232 37.124 221.08 37.124V37.1229Z" fill="white"/>
<path d="M80 262C103.196 262 122 242.748 122 219C122 195.252 103.196 176 80 176C56.804 176 38 195.252 38 219C38 242.748 56.804 262 80 262Z" fill="white"/>
</svg>
